<svg width="1440" height="900" viewBox="0 0 1440 900" fill="none" xmlns="http://www.w3.org/2000/svg">
  <rect width="1440" height="900" fill="#F8F5EF"/>
  <circle cx="1140" cy="162" r="190" fill="#DDE7DC" opacity="0.38"/>
  <circle cx="158" cy="762" r="230" fill="#EAC7B8" opacity="0.2"/>

  <text x="88" y="92" fill="#28332E" font-family="Inter, Arial, sans-serif" font-size="28" font-weight="760">Spika</text>
  <g transform="translate(1210 58)">
    <rect width="142" height="44" rx="22" fill="#28332E"/>
    <text x="28" y="28" fill="#FFFFFF" font-family="Inter, Arial, sans-serif" font-size="15" font-weight="680">Skapa</text>
    <text x="82" y="28" fill="#FFFFFF" font-family="Inter, Arial, sans-serif" font-size="15" font-weight="680">Admin</text>
  </g>

  <g transform="translate(88 222)">
    <text x="0" y="0" fill="#28332E" font-family="Inter, Arial, sans-serif" font-size="76" font-weight="760" letter-spacing="-2.8">
      Planera enkelt
    </text>
    <text x="0" y="86" fill="#28332E" font-family="Inter, Arial, sans-serif" font-size="76" font-weight="760" letter-spacing="-2.8">
      med gruppen
    </text>
    <text x="2" y="148" fill="#66736B" font-family="Inter, Arial, sans-serif" font-size="22" font-weight="430">
      Skapa en privat länk, dela den och låt alla rösta
    </text>
    <text x="2" y="181" fill="#66736B" font-family="Inter, Arial, sans-serif" font-size="22" font-weight="430">
      på tiderna som faktiskt fungerar.
    </text>

    <g transform="translate(0 238)">
      <rect width="226" height="58" rx="29" fill="#5F7E6A"/>
      <text x="33" y="37" fill="#FFFFFF" font-family="Inter, Arial, sans-serif" font-size="18" font-weight="720">Skapa planering</text>
    </g>

    <g transform="translate(0 326)">
      <rect width="420" height="62" rx="31" fill="#FFFFFF" stroke="#E4DED4"/>
      <text x="28" y="39" fill="#9A8F82" font-family="Inter, Arial, sans-serif" font-size="17" font-weight="450">Ange planerings-ID eller URL</text>
      <rect x="278" y="8" width="134" height="46" rx="23" fill="#EEF3ED"/>
      <text x="304" y="37" fill="#405146" font-family="Inter, Arial, sans-serif" font-size="16" font-weight="700">Hitta</text>
    </g>
  </g>

  <g transform="translate(690 172)">
    <rect width="646" height="600" rx="34" fill="#FFFFFF" stroke="#E5DED4"/>
    <rect x="28" y="28" width="590" height="104" rx="26" fill="#F3F0EA"/>
    <text x="56" y="74" fill="#28332E" font-family="Inter, Arial, sans-serif" font-size="30" font-weight="750" letter-spacing="-0.8">Middag hos Lina</text>
    <text x="56" y="108" fill="#66736B" font-family="Inter, Arial, sans-serif" font-size="16" font-weight="470">Privat planeringslänk</text>
    <rect x="408" y="57" width="168" height="44" rx="22" fill="#FFFFFF" stroke="#DFD8CC"/>
    <text x="442" y="85" fill="#405146" font-family="Inter, Arial, sans-serif" font-size="15" font-weight="700">Kopiera länk</text>

    <text x="32" y="184" fill="#28332E" font-family="Inter, Arial, sans-serif" font-size="20" font-weight="740">Datumförslag</text>
    <text x="466" y="184" fill="#66736B" font-family="Inter, Arial, sans-serif" font-size="14" font-weight="600">Rösta</text>

    <g transform="translate(28 214)">
      <rect width="590" height="86" rx="23" fill="#FFFFFF" stroke="#E7E0D7"/>
      <text x="28" y="36" fill="#28332E" font-family="Inter, Arial, sans-serif" font-size="20" font-weight="720">Fredag 18:00</text>
      <text x="28" y="62" fill="#66736B" font-family="Inter, Arial, sans-serif" font-size="14" font-weight="500">4 ja · 1 kanske · 0 nej</text>
      <rect x="318" y="23" width="68" height="40" rx="20" fill="#5F7E6A"/>
      <text x="342" y="49" fill="#FFFFFF" font-family="Inter, Arial, sans-serif" font-size="14" font-weight="700">Ja</text>
      <rect x="398" y="23" width="86" height="40" rx="20" fill="#F3F0EA"/>
      <text x="417" y="49" fill="#536157" font-family="Inter, Arial, sans-serif" font-size="14" font-weight="700">Kanske</text>
      <rect x="496" y="23" width="66" height="40" rx="20" fill="#F3F0EA"/>
      <text x="518" y="49" fill="#536157" font-family="Inter, Arial, sans-serif" font-size="14" font-weight="700">Nej</text>
    </g>

    <g transform="translate(28 318)">
      <rect width="590" height="86" rx="23" fill="#FBFAF7" stroke="#E7E0D7"/>
      <text x="28" y="36" fill="#28332E" font-family="Inter, Arial, sans-serif" font-size="20" font-weight="720">Lördag 14:00</text>
      <text x="28" y="62" fill="#66736B" font-family="Inter, Arial, sans-serif" font-size="14" font-weight="500">3 ja · 2 kanske · 1 nej</text>
      <rect x="318" y="23" width="68" height="40" rx="20" fill="#EEF3ED"/>
      <text x="342" y="49" fill="#405146" font-family="Inter, Arial, sans-serif" font-size="14" font-weight="700">Ja</text>
      <rect x="398" y="23" width="86" height="40" rx="20" fill="#5F7E6A"/>
      <text x="417" y="49" fill="#FFFFFF" font-family="Inter, Arial, sans-serif" font-size="14" font-weight="700">Kanske</text>
      <rect x="496" y="23" width="66" height="40" rx="20" fill="#F3F0EA"/>
      <text x="518" y="49" fill="#536157" font-family="Inter, Arial, sans-serif" font-size="14" font-weight="700">Nej</text>
    </g>

    <g transform="translate(28 422)">
      <rect width="590" height="86" rx="23" fill="#FFFFFF" stroke="#E7E0D7"/>
      <text x="28" y="36" fill="#28332E" font-family="Inter, Arial, sans-serif" font-size="20" font-weight="720">Söndag 11:00</text>
      <text x="28" y="62" fill="#66736B" font-family="Inter, Arial, sans-serif" font-size="14" font-weight="500">2 ja · 3 kanske · 1 nej</text>
      <rect x="318" y="23" width="68" height="40" rx="20" fill="#EEF3ED"/>
      <text x="342" y="49" fill="#405146" font-family="Inter, Arial, sans-serif" font-size="14" font-weight="700">Ja</text>
      <rect x="398" y="23" width="86" height="40" rx="20" fill="#F3F0EA"/>
      <text x="417" y="49" fill="#536157" font-family="Inter, Arial, sans-serif" font-size="14" font-weight="700">Kanske</text>
      <rect x="496" y="23" width="66" height="40" rx="20" fill="#DFA58E" opacity="0.88"/>
      <text x="518" y="49" fill="#FFFFFF" font-family="Inter, Arial, sans-serif" font-size="14" font-weight="700">Nej</text>
    </g>

    <rect x="28" y="540" width="198" height="42" rx="21" fill="#EEF3ED"/>
    <text x="52" y="567" fill="#405146" font-family="Inter, Arial, sans-serif" font-size="15" font-weight="700">Föreslå en annan tid</text>
  </g>
</svg>
