<svg xmlns="http://www.w3.org/2000/svg" viewBox="0 0 64 64">
  <rect width="64" height="64" rx="14" fill="#cfd4bf" />
  <path
    d="M19 21c0-4.2 3.6-7 9.6-7 4.3 0 7.7 1.2 10.5 3.6l-4.3 5.2c-2-1.6-4.1-2.4-6.6-2.4-2 0-3.1.7-3.1 1.8 0 1.4 1.2 1.9 5.5 2.9 6.2 1.4 9.9 3.6 9.9 9.1 0 4.9-4 8.4-10.8 8.4-5.1 0-9.4-1.7-12.4-4.7l4.7-5c2.3 2.1 5 3.2 8 3.2 2.2 0 3.5-.7 3.5-2.1 0-1.3-1-1.9-5.2-2.8C22.1 29.8 19 27.5 19 21Z"
    fill="#193526"
  />
  <circle cx="44.5" cy="20.5" r="4.5" fill="#c9867e" />
</svg>
